<mxfile host="app.diagrams.net" modified="2024-01-27T14:28:09.071Z" agent="Mozilla/5.0 (Windows NT 10.0; Win64; x64) AppleWebKit/537.36 (KHTML, like Gecko) Chrome/121.0.0.0 Safari/537.36" etag="ZbvEFLgMy1deA0rvBqmy" version="23.0.1" type="github">
  <diagram id="prtHgNgQTEPvFCAcTncT" name="Page-1">
    <mxGraphModel dx="988" dy="527" grid="1" gridSize="10" guides="1" tooltips="1" connect="1" arrows="1" fold="1" page="1" pageScale="1" pageWidth="827" pageHeight="1169" math="0" shadow="0">
      <root>
        <mxCell id="0" />
        <mxCell id="1" parent="0" />
        <mxCell id="lY4SrYcZ-dOrzgYFRuy0-1" value="Web服务" style="rounded=1;whiteSpace=wrap;html=1;fillColor=#bac8d3;strokeColor=#23445d;" vertex="1" parent="1">
          <mxGeometry x="297" y="240" width="120" height="30" as="geometry" />
        </mxCell>
        <mxCell id="lY4SrYcZ-dOrzgYFRuy0-2" value="nginx服务" style="rounded=1;whiteSpace=wrap;html=1;fillColor=#7EA6E0;" vertex="1" parent="1">
          <mxGeometry x="230" y="309" width="280" height="30" as="geometry" />
        </mxCell>
        <mxCell id="lY4SrYcZ-dOrzgYFRuy0-8" value="中间层" style="text;html=1;strokeColor=none;fillColor=none;align=center;verticalAlign=middle;whiteSpace=wrap;rounded=0;" vertex="1" parent="1">
          <mxGeometry x="100" y="390" width="60" height="30" as="geometry" />
        </mxCell>
        <mxCell id="lY4SrYcZ-dOrzgYFRuy0-10" value="" style="endArrow=none;dashed=1;html=1;dashPattern=1 3;strokeWidth=2;rounded=0;" edge="1" parent="1">
          <mxGeometry width="50" height="50" relative="1" as="geometry">
            <mxPoint x="102" y="289" as="sourcePoint" />
            <mxPoint x="642" y="289" as="targetPoint" />
          </mxGeometry>
        </mxCell>
        <mxCell id="lY4SrYcZ-dOrzgYFRuy0-11" value="" style="endArrow=none;dashed=1;html=1;dashPattern=1 3;strokeWidth=2;rounded=0;" edge="1" parent="1">
          <mxGeometry width="50" height="50" relative="1" as="geometry">
            <mxPoint x="103" y="520" as="sourcePoint" />
            <mxPoint x="643" y="520" as="targetPoint" />
          </mxGeometry>
        </mxCell>
        <mxCell id="lY4SrYcZ-dOrzgYFRuy0-18" value="" style="rounded=1;whiteSpace=wrap;html=1;fillColor=#ffe6cc;strokeColor=#d79b00;dashed=1;dashPattern=8 8;" vertex="1" parent="1">
          <mxGeometry x="230" y="360" width="280" height="150" as="geometry" />
        </mxCell>
        <mxCell id="lY4SrYcZ-dOrzgYFRuy0-23" value="提示词管理" style="rounded=1;whiteSpace=wrap;html=1;fillColor=#d5e8d4;strokeColor=#82b366;" vertex="1" parent="1">
          <mxGeometry x="329" y="380" width="80" height="30" as="geometry" />
        </mxCell>
        <mxCell id="lY4SrYcZ-dOrzgYFRuy0-26" value="知识库管理" style="rounded=1;whiteSpace=wrap;html=1;fillColor=#d5e8d4;strokeColor=#82b366;" vertex="1" parent="1">
          <mxGeometry x="240" y="380" width="80" height="30" as="geometry" />
        </mxCell>
        <mxCell id="lY4SrYcZ-dOrzgYFRuy0-27" value="日志管理" style="rounded=1;whiteSpace=wrap;html=1;fillColor=#d5e8d4;strokeColor=#82b366;" vertex="1" parent="1">
          <mxGeometry x="417" y="380" width="80" height="30" as="geometry" />
        </mxCell>
        <mxCell id="lY4SrYcZ-dOrzgYFRuy0-28" value="模型调整" style="rounded=1;whiteSpace=wrap;html=1;fillColor=#d5e8d4;strokeColor=#82b366;" vertex="1" parent="1">
          <mxGeometry x="240" y="420" width="80" height="30" as="geometry" />
        </mxCell>
        <mxCell id="lY4SrYcZ-dOrzgYFRuy0-29" value="权限管理" style="rounded=1;whiteSpace=wrap;html=1;fillColor=#d5e8d4;strokeColor=#82b366;" vertex="1" parent="1">
          <mxGeometry x="329" y="420" width="80" height="30" as="geometry" />
        </mxCell>
        <mxCell id="lY4SrYcZ-dOrzgYFRuy0-30" value="用户管理" style="rounded=1;whiteSpace=wrap;html=1;fillColor=#d5e8d4;strokeColor=#82b366;" vertex="1" parent="1">
          <mxGeometry x="417" y="420" width="80" height="30" as="geometry" />
        </mxCell>
        <mxCell id="lY4SrYcZ-dOrzgYFRuy0-31" value="服务器状态" style="rounded=1;whiteSpace=wrap;html=1;fillColor=#d5e8d4;strokeColor=#82b366;" vertex="1" parent="1">
          <mxGeometry x="239" y="460" width="80" height="30" as="geometry" />
        </mxCell>
        <mxCell id="lY4SrYcZ-dOrzgYFRuy0-32" value="排队服务" style="rounded=1;whiteSpace=wrap;html=1;fillColor=#d5e8d4;strokeColor=#82b366;" vertex="1" parent="1">
          <mxGeometry x="329" y="460" width="80" height="30" as="geometry" />
        </mxCell>
        <mxCell id="lY4SrYcZ-dOrzgYFRuy0-33" value="" style="rounded=1;whiteSpace=wrap;html=1;fillColor=#f8cecc;dashed=1;strokeColor=#b85450;dashPattern=8 8;" vertex="1" parent="1">
          <mxGeometry x="227" y="529" width="393" height="210" as="geometry" />
        </mxCell>
        <mxCell id="lY4SrYcZ-dOrzgYFRuy0-34" value="" style="rounded=1;whiteSpace=wrap;html=1;fillColor=#e1d5e7;strokeColor=#9673a6;dashed=1;dashPattern=8 8;" vertex="1" parent="1">
          <mxGeometry x="520" y="360" width="100" height="150" as="geometry" />
        </mxCell>
        <mxCell id="lY4SrYcZ-dOrzgYFRuy0-35" value="数据库" style="rounded=1;whiteSpace=wrap;html=1;fillColor=#dae8fc;strokeColor=#6c8ebf;" vertex="1" parent="1">
          <mxGeometry x="531" y="440" width="79" height="30" as="geometry" />
        </mxCell>
        <mxCell id="lY4SrYcZ-dOrzgYFRuy0-36" value="知识库" style="rounded=1;whiteSpace=wrap;html=1;fillColor=#f5f5f5;fontColor=#333333;strokeColor=#666666;" vertex="1" parent="1">
          <mxGeometry x="531" y="380" width="79" height="30" as="geometry" />
        </mxCell>
        <mxCell id="lY4SrYcZ-dOrzgYFRuy0-37" value="" style="rounded=1;whiteSpace=wrap;html=1;fillColor=#fff2cc;strokeColor=#d6b656;" vertex="1" parent="1">
          <mxGeometry x="260" y="539" width="142" height="190" as="geometry" />
        </mxCell>
        <mxCell id="lY4SrYcZ-dOrzgYFRuy0-38" value="模型1" style="rounded=1;whiteSpace=wrap;html=1;fillColor=#CCFFCC;strokeColor=#b85450;" vertex="1" parent="1">
          <mxGeometry x="271" y="559" width="120" height="31" as="geometry" />
        </mxCell>
        <mxCell id="lY4SrYcZ-dOrzgYFRuy0-40" value="后端服务" style="text;html=1;strokeColor=none;fillColor=none;align=center;verticalAlign=middle;whiteSpace=wrap;rounded=0;" vertex="1" parent="1">
          <mxGeometry x="424" y="460" width="60" height="30" as="geometry" />
        </mxCell>
        <mxCell id="lY4SrYcZ-dOrzgYFRuy0-42" value="模型2" style="rounded=1;whiteSpace=wrap;html=1;fillColor=#CCFFCC;strokeColor=#b85450;" vertex="1" parent="1">
          <mxGeometry x="271" y="600" width="120" height="31" as="geometry" />
        </mxCell>
        <mxCell id="lY4SrYcZ-dOrzgYFRuy0-44" value="" style="endArrow=none;dashed=1;html=1;dashPattern=1 3;strokeWidth=2;rounded=0;" edge="1" parent="1">
          <mxGeometry width="50" height="50" relative="1" as="geometry">
            <mxPoint x="330.76" y="671" as="sourcePoint" />
            <mxPoint x="330.76" y="631" as="targetPoint" />
          </mxGeometry>
        </mxCell>
        <mxCell id="lY4SrYcZ-dOrzgYFRuy0-45" value="模型层" style="text;html=1;strokeColor=none;fillColor=none;align=center;verticalAlign=middle;whiteSpace=wrap;rounded=0;" vertex="1" parent="1">
          <mxGeometry x="100" y="590" width="60" height="30" as="geometry" />
        </mxCell>
        <mxCell id="lY4SrYcZ-dOrzgYFRuy0-46" value="" style="rounded=1;whiteSpace=wrap;html=1;fillColor=#fff2cc;strokeColor=#d6b656;" vertex="1" parent="1">
          <mxGeometry x="438" y="539" width="142" height="190" as="geometry" />
        </mxCell>
        <mxCell id="lY4SrYcZ-dOrzgYFRuy0-47" value="模型1" style="rounded=1;whiteSpace=wrap;html=1;fillColor=#CCFFCC;strokeColor=#b85450;" vertex="1" parent="1">
          <mxGeometry x="449" y="559" width="120" height="31" as="geometry" />
        </mxCell>
        <mxCell id="lY4SrYcZ-dOrzgYFRuy0-49" value="模型2" style="rounded=1;whiteSpace=wrap;html=1;fillColor=#CCFFCC;strokeColor=#b85450;" vertex="1" parent="1">
          <mxGeometry x="449" y="600" width="120" height="31" as="geometry" />
        </mxCell>
        <mxCell id="lY4SrYcZ-dOrzgYFRuy0-50" value="" style="endArrow=none;dashed=1;html=1;dashPattern=1 3;strokeWidth=2;rounded=0;" edge="1" parent="1">
          <mxGeometry width="50" height="50" relative="1" as="geometry">
            <mxPoint x="508.76" y="671" as="sourcePoint" />
            <mxPoint x="508.76" y="631" as="targetPoint" />
          </mxGeometry>
        </mxCell>
        <mxCell id="lY4SrYcZ-dOrzgYFRuy0-51" value="前端" style="text;html=1;strokeColor=none;fillColor=none;align=center;verticalAlign=middle;whiteSpace=wrap;rounded=0;" vertex="1" parent="1">
          <mxGeometry x="100" y="240" width="60" height="30" as="geometry" />
        </mxCell>
        <mxCell id="lY4SrYcZ-dOrzgYFRuy0-52" value="语言类模型" style="text;html=1;strokeColor=none;fillColor=none;align=center;verticalAlign=middle;whiteSpace=wrap;rounded=0;" vertex="1" parent="1">
          <mxGeometry x="296.5" y="680" width="69" height="30" as="geometry" />
        </mxCell>
        <mxCell id="lY4SrYcZ-dOrzgYFRuy0-53" value="图文类模型" style="text;html=1;strokeColor=none;fillColor=none;align=center;verticalAlign=middle;whiteSpace=wrap;rounded=0;" vertex="1" parent="1">
          <mxGeometry x="474.5" y="680" width="69" height="30" as="geometry" />
        </mxCell>
      </root>
    </mxGraphModel>
  </diagram>
</mxfile>
